<svg xmlns="http://www.w3.org/2000/svg" version="1.1" xmlns:xlink="http://www.w3.org/1999/xlink" xmlns:svgjs="http://svgjs.com/svgjs" width="3440" height="1440" preserveAspectRatio="none" viewBox="0 0 1920 1080">
    <g mask="url(&quot;#SvgjsMask1017&quot;)" fill="none">
        <rect width="1920" height="1080" x="0" y="0" fill="rgba(239, 238, 235, 1)"></rect>
        <path d="M1111.635,1178.708C1204.751,1172.36,1286.003,1123.225,1335.541,1044.124C1388.803,959.076,1413.56,856.042,1370.462,765.418C1321.005,661.422,1226.787,572.206,1111.635,573.312C997.826,574.405,917.011,671.074,861.278,770.308C807.001,866.95,769.841,984.244,827.77,1078.742C883.964,1170.409,1004.364,1186.021,1111.635,1178.708" fill="rgba(233, 213, 198, 1)" class="triangle-float3"></path>
        <path d="M3149.17,1178.691C3201.072,1176.499,3250.472,1151.601,3274.983,1105.799C3298.302,1062.225,3284.889,1011.825,3261.873,968.091C3236.653,920.17,3203.303,868.154,3149.17,866.738C3093.513,865.282,3053.757,913.785,3025.77,961.916C2997.585,1010.387,2975.755,1068.539,3003.493,1117.267C3031.436,1166.354,3092.737,1181.075,3149.17,1178.691" fill="rgb(244,202,198)" class="triangle-float3"></path>
        <path d="M2348.119,746.655C2427.707,750.273,2508.073,721.35,2551.091,654.292C2597.521,581.916,2603.628,488.868,2561.624,413.838C2518.699,337.164,2435.981,290.382,2348.119,291.733C2262.467,293.05,2184.108,343.669,2145.69,420.233C2110.617,490.13,2133.563,570.723,2174.778,637.184C2213.38,699.431,2274.95,743.329,2348.119,746.655" fill="rgba(233, 213, 198, 1)" class="triangle-float2"></path>
        <path d="M2322.578,1220.629C2417.376,1220.219,2496.468,1153.48,2540.816,1069.694C2582.26,991.394,2577.256,898.948,2533.663,821.824C2489.306,743.348,2412.72,684.383,2322.578,683.592C2231.194,682.79,2150.288,738.699,2104.976,818.062C2060.06,896.732,2057.973,991.902,2101.049,1071.594C2146.407,1155.508,2227.191,1221.041,2322.578,1220.629" fill="rgb(244,202,198)" class="triangle-float2"></path>
        <path d="M2788.627,670.874C2894.21,673.377,3003.873,647.766,3062.677,560.038C3128.064,462.49,3140.892,334.033,3082.839,231.951C3024.205,128.847,2906.943,69.798,2788.627,78.139C2682.08,85.65,2609.03,174.847,2558.442,268.918C2511.143,356.873,2486.563,460.896,2536.191,547.558C2586.07,634.659,2688.283,668.496,2788.627,670.874" fill="rgba(233, 213, 198, 1)" class="triangle-float2"></path>
        <path d="M268.324,584.327C323.395,585.826,376.154,559.147,404.443,511.874C433.489,463.335,436.45,401.492,406.42,353.556C377.94,308.094,321.895,291.758,268.324,294.589C219.873,297.149,178.017,325.124,153.386,366.926C128.329,409.452,121.394,461.16,144.464,504.796C169.043,551.287,215.755,582.896,268.324,584.327" fill="rgb(244,202,198)" class="triangle-float3"></path>
        <path d="M2508.738,519.094C2584.244,518.401,2652.201,473.924,2688.286,407.596C2722.841,344.081,2715.113,268.273,2679.398,205.403C2643.194,141.67,2582.015,89.765,2508.738,91.528C2437.776,93.235,2387.359,151.892,2351.733,213.287C2315.928,274.99,2290.805,347.483,2323.388,410.946C2358.404,479.149,2432.074,519.798,2508.738,519.094" fill="rgba(233, 213, 198, 1)" class="triangle-float2"></path>
        <path d="M1461.335,1716.608C1557.166,1714.539,1651.539,1679.688,1702.122,1598.269C1755.494,1512.36,1760.425,1403.35,1710.651,1315.308C1660.121,1225.929,1563.91,1167.862,1461.335,1172.361C1365.23,1176.576,1296.366,1252.936,1247.226,1335.635C1196.641,1420.765,1153.325,1522.744,1201.841,1609.07C1251.008,1696.555,1361.004,1718.774,1461.335,1716.608" fill="rgb(244,202,198)" class="triangle-float1"></path>
        <path d="M3289.403,1105.427C3353.405,1106.565,3408.445,1065.044,3441.006,1009.932C3474.209,953.733,3487.424,883.428,3453.514,827.654C3420.609,773.533,3352.737,759.766,3289.403,760.582C3227.835,761.375,3163.503,778.617,3132.455,831.789C3101.197,885.321,3116.015,950.93,3146.857,1004.703C3177.882,1058.795,3227.055,1104.319,3289.403,1105.427" fill="rgba(233, 213, 198, 1)" class="triangle-float3"></path>
    </g>
    <defs>
        <mask id="SvgjsMask1017">
            <rect width="1920" height="1080" fill="#ffffff"></rect>
        </mask>
        <style>
            @keyframes float1 {
                0%{transform: translate(0, 0)}
                50%{transform: translate(-20px, 0)}
                100%{transform: translate(0, 0)}
            }

            .triangle-float1 {
                animation: float1 5s infinite;
            }

            @keyframes float2 {
                0%{transform: translate(0, 0)}
                50%{transform: translate(-15px, -15px)}
                100%{transform: translate(0, 0)}
            }

            .triangle-float2 {
                animation: float2 4s infinite;
            }

            @keyframes float3 {
                0%{transform: translate(0, 0)}
                50%{transform: translate(0, -20px)}
                100%{transform: translate(0, 0)}
            }

            .triangle-float3 {
                animation: float3 6s infinite;
            }
        </style>
    </defs>
</svg>